<?xml version="1.0" standalone="no"?>
<!DOCTYPE svg PUBLIC "-//W3C//DTD SVG 20010904//EN"
 "http://www.w3.org/TR/2001/REC-SVG-20010904/DTD/svg10.dtd">
<svg version="1.0" xmlns="http://www.w3.org/2000/svg"
 width="512.000000pt" height="512.000000pt" viewBox="0 0 512.000000 512.000000"
 preserveAspectRatio="xMidYMid meet">
<metadata>
Created by potrace 1.14, written by Peter Selinger 2001-2017
</metadata>
<g transform="translate(0.000000,512.000000) scale(0.100000,-0.100000)"
fill="#000000" stroke="none">
<path d="M1085 5098 c-20 -18 -28 -38 -36 -88 -5 -36 -12 -76 -14 -90 -2 -14
-13 -83 -25 -155 -11 -71 -22 -139 -24 -150 -2 -11 -9 -54 -16 -96 l-12 -75
-387 0 c-212 1 -398 -3 -412 -7 -56 -17 -53 79 -53 -1748 0 -1659 1 -1690 20
-1708 10 -11 136 -69 279 -130 143 -61 541 -230 885 -376 l624 -265 598 0
c482 0 610 -3 665 -14 38 -8 80 -17 93 -19 22 -4 713 -144 750 -152 114 -24
139 -26 159 -16 25 14 46 53 54 101 6 32 9 51 22 115 2 11 20 99 40 195 20 96
39 184 41 195 8 44 142 694 244 1185 34 162 63 305 66 318 2 12 6 32 8 45 2
12 9 42 15 67 5 25 12 56 14 70 6 32 50 243 88 425 16 77 32 154 35 170 2 17
7 37 9 45 2 8 6 26 9 40 4 24 49 240 68 330 5 25 11 56 14 70 3 14 25 124 50
245 25 121 48 234 51 252 11 63 -11 98 -70 109 -12 2 -33 6 -47 9 -14 4 -36 8
-50 11 -14 3 -77 16 -140 29 -63 13 -126 26 -140 28 -14 3 -68 14 -120 25 -52
12 -108 24 -125 27 -16 3 -77 16 -135 28 l-105 23 0 34 c1 35 5 70 24 185 35
218 35 210 17 238 -17 25 -41 35 -106 43 -19 2 -46 6 -60 9 -14 3 -43 7 -65
10 -22 3 -62 10 -90 15 -27 6 -66 12 -85 15 -97 13 -119 16 -170 25 -74 13
-108 18 -155 25 -22 4 -83 13 -135 21 -52 9 -106 17 -120 19 -14 2 -81 13
-150 24 -69 11 -145 23 -170 26 -25 4 -83 13 -130 21 -110 19 -126 22 -180 29
-44 6 -103 15 -217 35 -32 5 -75 12 -95 15 -98 13 -119 16 -198 30 -47 8 -116
19 -155 25 -97 14 -150 23 -346 55 -14 3 -41 7 -60 9 -36 5 -63 9 -204 32
-114 18 -109 18 -140 -8z"/>
</g>
</svg>
